PathFileType	4	(X/Y/Z)	D:\TRACE\spot_10-12-23\spot_body_motion_2_5-platform.trc
DataRate	CameraRate	NumFrames	NumMarkers	Units	OrigDataRate	OrigDataStartFrame	OrigNumFrames
100.00	100.00	      36	5	mm	100.00	876	      7000
Frame#	Time	Left_Front			Right_Front			Left_Aft			Right_Aft			Post			
		X1	Y1	Z1	X2	Y2	Z2	X3	Y3	Z3	X4	Y4	Z4	X5	Y5	Z5	

876	8.750	-738.06561	31.94180	-635.07410	834.56543	36.56504	-628.13666	-654.94031	-12.41247	502.10706	762.25134	-10.35308	588.08539	44.47543	781.05322	-924.87787	
877	8.760	-737.42511	33.44890	-634.64484	835.22510	38.24320	-627.75378	-654.12720	-13.34294	502.52689	762.99854	-11.58030	588.56165	45.23915	783.35046	-922.78784	
878	8.770	-736.79492	34.87804	-634.13470	836.02979	39.65298	-627.25861	-653.56042	-14.09811	502.60913	763.77197	-12.80344	588.85516	46.06150	785.35071	-920.58588	
879	8.780	-735.95679	36.14235	-633.82941	836.88245	40.98002	-626.73596	-652.75171	-15.23406	503.02176	764.46527	-13.90041	589.11938	46.47466	787.44360	-918.74951	
880	8.790	-735.37250	37.38841	-633.25586	837.15253	42.35336	-626.55640	-652.26886	-16.17762	503.14627	765.05969	-15.13087	589.39325	46.99456	789.41144	-916.62885	
881	8.800	-734.90222	39.14784	-633.02112	837.77155	43.80625	-626.17828	-651.66455	-17.14400	503.48322	765.59094	-16.31176	589.80383	47.88114	791.21759	-914.39557	
882	8.810	-734.25934	40.46635	-632.65894	838.39978	45.02092	-625.66864	-651.01654	-17.98264	503.72729	766.40631	-17.52822	589.90466	48.12967	793.29340	-912.51538	
883	8.820	-733.79834	41.87717	-632.20013	838.79456	46.50587	-625.40619	-650.38495	-19.15702	503.95807	766.95581	-18.32725	590.17773	48.78508	795.17200	-910.65546	
884	8.830	-733.29340	43.16960	-631.73511	839.54871	47.82246	-624.97272	-650.08887	-19.84486	504.15686	767.21667	-19.47075	590.49457	49.39700	797.00616	-908.57538	
885	8.840	-732.67316	44.39475	-631.28125	839.97644	48.85855	-624.54736	-649.56177	-20.89646	504.46588	767.89331	-20.73404	590.67786	49.65378	798.79083	-906.87836	
886	8.850	-732.07861	45.35991	-630.92474	840.39752	50.03842	-624.29602	-649.06268	-21.60525	504.68021	768.25598	-21.69384	591.06555	50.23378	800.51117	-905.05322	
887	8.860	-731.96179	46.80360	-630.66827	840.67133	51.50739	-623.83911	-648.60382	-22.59109	504.94168	768.75696	-22.74817	591.09930	50.91920	802.24622	-903.24957	
888	8.870	-731.67554	48.05148	-630.18872	841.00482	52.65603	-623.38074	-648.10626	-23.76920	505.37708	769.05609	-23.75229	591.30176	50.94905	803.83398	-901.81311	
889	8.880	-731.14276	49.32998	-629.91833	841.29767	53.84984	-623.25677	-647.91907	-24.59112	505.69571	769.38373	-24.64809	591.56549	51.28756	805.70544	-899.87848	
890	8.890	-731.12628	50.31507	-629.47229	841.55042	55.12817	-622.85687	-647.60742	-25.25146	505.94092	769.57159	-25.63918	591.79993	51.47378	807.38898	-898.42065	
891	8.900	-730.94556	51.79119	-629.30566	842.02716	56.06578	-622.37518	-647.39081	-26.09835	505.97885	769.83490	-26.69732	591.95959	51.76690	808.90485	-896.76642	
892	8.910	-730.66107	52.63709	-628.92670	842.17126	57.18892	-621.96594	-647.36853	-26.70307	506.17679	769.94159	-27.54090	592.24011	52.11079	810.33167	-895.24097	
893	8.920	-730.56793	53.83920	-628.62054	842.17474	58.42216	-621.85236	-647.25171	-27.63091	506.46600	770.17303	-28.51063	592.59406	52.16607	811.99304	-893.51184	
894	8.930	-730.38763	54.71577	-628.24548	842.36774	59.34887	-621.44086	-647.12921	-28.25092	506.56891	770.49518	-29.27415	592.93604	52.43673	813.47919	-892.00494	
895	8.940	-730.58020	55.80368	-627.85437	842.29034	60.24704	-621.01227	-647.11951	-28.90691	506.80972	770.62360	-29.80042	593.25922	52.15202	814.89532	-890.38245	
896	8.950	-730.39673	56.81964	-627.67090	842.23639	61.38625	-620.76904	-647.11713	-29.63391	506.96780	770.70001	-30.37621	593.62231	52.09218	816.20258	-888.75531	
897	8.960	-730.56165	57.74246	-627.26343	842.28851	62.30208	-620.49371	-647.23138	-30.29254	507.00092	770.71936	-31.36167	593.91071	52.07902	817.38428	-887.56854	
898	8.970	-730.46625	58.38879	-627.01587	842.40509	62.95748	-620.21179	-647.13806	-30.92179	507.29636	770.93402	-32.03621	594.16571	52.17494	818.59882	-886.07745	
899	8.980	-730.37024	59.43285	-626.71777	842.17194	63.91119	-620.05627	-647.07843	-31.62103	507.51694	770.91180	-32.48892	594.23602	51.87620	819.88068	-884.78406	
900	8.990	-730.40613	60.33162	-626.60284	842.40442	64.77312	-619.50049	-647.10358	-32.23859	507.71176	770.22723	-33.75140	593.69830	51.95043	820.97681	-883.67590	
901	9.000	-730.63641	60.88353	-626.27484	841.95911	65.48889	-619.32617	-647.40216	-32.74575	507.74768	769.93372	-34.78290	593.89368	51.94297	822.22601	-882.33966	
902	9.010	-731.10162	61.90430	-625.80450	841.53717	66.41354	-619.10364	-647.73077	-33.31973	507.90109	769.85327	-35.36293	593.91876	51.34989	823.40588	-881.31091	
903	9.020	-731.35699	62.66375	-625.56152	841.12665	67.21805	-618.98523	-648.11188	-33.85112	507.96036	769.32440	-36.11814	594.10455	51.14442	824.54761	-880.37415	
904	9.030	-731.66675	63.44665	-625.26630	840.90668	67.91273	-618.67993	-648.25800	-34.64479	508.36560	768.69794	-36.73773	594.17767	50.78159	825.51227	-879.45764	
905	9.040	-732.05585	64.29414	-625.16449	840.60779	68.55156	-618.51331	-648.68048	-35.01446	508.24155	768.28522	-37.25220	594.29681	50.38037	826.54144	-878.26056	
906	9.050	-732.34564	64.65962	-625.05389	840.31812	69.28274	-618.22174	-648.80359	-35.42571	508.71835	768.09039	-37.53481	594.42438	50.11259	827.30505	-877.01581	
907	9.060	-732.74884	65.36173	-624.77002	840.04547	69.81900	-617.89209	-649.10211	-35.83804	508.90961	767.84442	-38.03596	594.53076	49.73728	827.96576	-876.21014	
908	9.070	-732.82581	65.60183	-624.55212	839.81622	70.14570	-617.78345	-649.93793	-36.08557	508.91669	767.72632	-38.38180	594.84766	49.20925	828.79260	-875.28046	
909	9.080	-733.46277	66.17184	-624.31445	839.19897	70.72660	-617.74066	-650.22723	-36.58989	508.99896	767.16431	-39.22214	594.82544	49.00314	829.42493	-874.36938	
910	9.090	-733.88306	66.49213	-624.17169	838.68292	71.26537	-617.64563	-650.49426	-36.93815	509.01193	766.86169	-39.63406	594.89136	48.46373	830.12628	-873.77917	
911	9.100	-734.32202	67.16693	-624.10443	838.12231	71.56858	-617.50385	-650.78058	-37.41770	509.28830	766.40637	-40.00296	594.94489	48.19867	830.56952	-873.19373	
